<svg xmlns="http://www.w3.org/2000/svg" xmlns:xlink="http://www.w3.org/1999/xlink" width="500" zoomAndPan="magnify" viewBox="0 0 375 374.999991" height="500" preserveAspectRatio="xMidYMid meet" version="1.0"><defs><clipPath id="id1"><path d="M 5.625 104 L 33 104 L 33 151 L 5.625 151 Z M 5.625 104 " clip-rule="nonzero"/></clipPath><clipPath id="id2"><path d="M 351.539062 104.277344 L 369.375 104.277344 L 369.375 151.816406 L 351.539062 151.816406 Z M 351.539062 104.277344 " clip-rule="nonzero"/></clipPath></defs><path fill="#c22828" d="M 130.488281 338.277344 C 130.589844 338.625 130.695312 338.972656 130.800781 339.320312 C 130.691406 338.972656 130.585938 338.625 130.488281 338.277344 Z M 129.03125 324.871094 C 128.847656 319.847656 128.664062 314.828125 128.484375 309.804688 C 128.117188 299.757812 127.753906 289.707031 127.386719 279.660156 C 127.203125 274.636719 127.023438 269.609375 126.839844 264.585938 C 126.679688 260.1875 126.484375 255.789062 126.53125 251.386719 C 126.625 243.144531 127.558594 234.566406 131.691406 227.269531 C 132.191406 226.386719 132.738281 225.53125 133.324219 224.699219 C 133.351562 224.664062 133.308594 224.621094 133.269531 224.628906 C 131.324219 225.105469 129.890625 226.523438 128.699219 228.066406 C 127.0625 230.179688 125.601562 232.441406 124.082031 234.640625 C 120.835938 239.332031 117.621094 244.050781 114.441406 248.789062 C 108.6875 257.371094 102.882812 266.28125 101.054688 276.632812 C 100.105469 281.996094 100.085938 287.464844 100.046875 292.890625 C 100.007812 298.675781 99.964844 304.460938 99.921875 310.246094 C 99.882812 315.886719 99.597656 321.597656 100.0625 327.222656 C 100.277344 329.847656 100.738281 332.429688 101.519531 334.945312 C 102.316406 337.511719 103.332031 340.027344 103.769531 342.691406 C 104.214844 345.382812 104.117188 348.128906 104.476562 350.832031 C 104.773438 353.042969 105.351562 355.214844 106.179688 357.289062 C 107.78125 361.300781 110.316406 364.949219 113.546875 367.820312 C 114.332031 368.515625 115.152344 369.160156 116.007812 369.761719 C 116.058594 369.796875 116.105469 369.714844 116.058594 369.679688 C 116 369.640625 115.945312 369.597656 115.886719 369.554688 L 114.316406 367.792969 C 116.195312 369.136719 118.664062 369.386719 120.78125 368.4375 C 120.796875 368.429688 120.808594 368.410156 120.808594 368.394531 C 120.800781 366.902344 120.96875 365.414062 121.335938 363.960938 C 121.503906 363.296875 121.710938 362.644531 121.953125 362.003906 C 122.105469 361.609375 122.269531 361.21875 122.453125 360.835938 C 122.503906 360.726562 122.601562 360.449219 122.710938 360.207031 C 122.757812 360.117188 122.808594 360.027344 122.855469 359.941406 C 122.898438 359.875 122.9375 359.828125 122.980469 359.808594 C 123.097656 359.753906 123.257812 359.855469 123.421875 360.007812 C 123.507812 360.101562 123.597656 360.191406 123.691406 360.28125 C 123.828125 360.433594 123.957031 360.578125 124.046875 360.648438 C 124.4375 360.953125 124.871094 361.203125 125.328125 361.390625 C 126.261719 361.773438 127.257812 361.875 128.25 361.722656 C 128.273438 361.71875 128.289062 361.6875 128.28125 361.664062 C 127.222656 357.902344 129.070312 354.242188 130.40625 350.8125 C 131.050781 349.152344 131.648438 347.445312 131.84375 345.667969 C 132.078125 343.542969 131.53125 341.539062 130.914062 339.527344 C 129.4375 334.734375 129.210938 329.847656 129.03125 324.871094 " fill-opacity="1" fill-rule="nonzero"/><path fill="#c22828" d="M 165.675781 301.789062 C 164.78125 299.082031 162.898438 296.9375 160.089844 296.175781 C 156.804688 295.292969 153.160156 296.191406 150.011719 294.734375 C 148.277344 293.929688 147.269531 292.339844 145.875 291.113281 C 144.808594 290.175781 143.515625 289.519531 142.144531 289.152344 C 139.386719 288.417969 136.289062 288.832031 133.882812 290.386719 L 134.300781 290.019531 C 134.371094 289.976562 134.445312 289.933594 134.519531 289.890625 C 134.570312 289.859375 134.523438 289.777344 134.472656 289.808594 C 130.296875 292.195312 129.316406 297.457031 129.082031 301.867188 C 128.773438 307.710938 129.121094 313.640625 129.816406 319.445312 C 130.519531 325.332031 131.671875 331.167969 133.253906 336.882812 C 134.839844 342.597656 136.851562 348.191406 139.28125 353.601562 C 141.722656 359.054688 144.582031 364.316406 147.839844 369.320312 C 148.25 369.953125 148.667969 370.578125 149.089844 371.203125 C 149.113281 371.230469 149.152344 371.234375 149.175781 371.203125 C 151.582031 367.425781 153.988281 363.648438 156.394531 359.871094 C 158.550781 356.484375 160.863281 353.113281 162.308594 349.34375 C 163.816406 345.421875 164.070312 341.207031 164.394531 337.0625 C 164.738281 332.605469 165.085938 328.148438 165.433594 323.691406 C 165.769531 319.363281 166.160156 315.035156 166.433594 310.703125 C 166.621094 307.742188 166.613281 304.636719 165.675781 301.789062 " fill-opacity="1" fill-rule="nonzero"/><path fill="#c22828" d="M 350.277344 260.371094 C 349.757812 258.722656 348.996094 257.128906 348.785156 255.398438 C 348.5625 253.566406 348.894531 251.722656 349.144531 249.910156 C 349.382812 248.152344 349.578125 246.382812 349.714844 244.613281 C 350.007812 240.957031 350.082031 237.285156 349.945312 233.621094 C 349.832031 230.570312 349.65625 227.46875 348.957031 224.484375 C 348.367188 221.964844 347.351562 219.441406 345.496094 217.582031 C 345.058594 217.144531 344.578125 216.757812 344.066406 216.410156 C 344.039062 216.390625 344 216.40625 343.996094 216.4375 C 343.074219 221.519531 341.3125 226.394531 339.207031 231.097656 C 337.078125 235.832031 334.609375 240.402344 332.21875 245.007812 C 329.871094 249.53125 327.582031 254.101562 325.796875 258.882812 C 324.054688 263.558594 322.828125 268.449219 322.582031 273.445312 C 322.515625 274.808594 322.511719 276.191406 322.773438 277.539062 C 323.03125 278.863281 323.597656 280.050781 324.378906 281.144531 C 325.539062 282.765625 327.269531 284.027344 329.34375 283.453125 C 329.886719 283.304688 330.390625 283.054688 330.867188 282.757812 C 331.277344 282.871094 331.6875 282.984375 332.097656 283.09375 C 332.328125 283.160156 332.558594 283.222656 332.789062 283.285156 C 333 283.34375 333.273438 283.371094 333.476562 283.472656 C 333.710938 283.589844 333.8125 283.925781 333.929688 284.144531 C 334.023438 284.320312 334.117188 284.496094 334.207031 284.667969 C 334.4375 285.109375 334.667969 285.546875 334.902344 285.984375 C 335.605469 287.316406 336.238281 288.796875 337.28125 289.910156 C 338.167969 290.851562 339.382812 291.359375 340.679688 291.175781 C 342.035156 290.984375 343.238281 290.171875 344.222656 289.261719 C 345.304688 288.257812 346.167969 287.035156 346.953125 285.792969 C 347.742188 284.542969 348.433594 283.230469 349.027344 281.875 C 350.199219 279.210938 350.984375 276.378906 351.367188 273.492188 C 351.753906 270.59375 351.738281 267.640625 351.292969 264.746094 C 351.070312 263.265625 350.730469 261.800781 350.277344 260.371094 " fill-opacity="1" fill-rule="nonzero"/><path fill="#c22828" d="M 315.308594 271.207031 C 314.71875 269.460938 314.050781 267.738281 313.367188 266.027344 C 312.800781 264.613281 312.316406 263.007812 311.296875 261.847656 C 309.460938 259.757812 306.417969 260.417969 303.96875 260.402344 C 302.558594 260.394531 301.097656 260.167969 300.0625 259.128906 C 299.035156 258.097656 298.523438 256.683594 297.199219 255.945312 C 294.960938 254.699219 291.96875 255.527344 290.28125 257.324219 C 288.183594 259.558594 287.699219 262.8125 287.800781 265.757812 C 287.863281 267.671875 288.140625 269.570312 288.285156 271.480469 C 288.421875 273.339844 288.320312 275.179688 288.242188 277.039062 C 288.167969 278.75 288.15625 280.492188 288.59375 282.160156 C 289.054688 283.921875 290.179688 285.386719 290.730469 287.109375 C 291.289062 288.871094 291.25 290.746094 291.210938 292.570312 C 291.171875 294.40625 291.222656 296.214844 291.464844 298.035156 C 291.949219 301.683594 292.914062 305.265625 293.105469 308.953125 C 293.300781 312.714844 292.417969 316.371094 291.734375 320.042969 C 291.398438 321.8125 291.117188 323.597656 291.050781 325.398438 C 291.023438 326.234375 291.074219 327.066406 291.085938 327.902344 C 291.09375 328.527344 291.066406 329.160156 291.15625 329.78125 C 291.289062 330.710938 291.789062 331.257812 292.726562 331.273438 C 292.238281 332.242188 291.753906 333.214844 291.265625 334.183594 C 290.734375 335.238281 290.164062 336.355469 290.289062 337.582031 C 290.394531 338.585938 291.226562 339.285156 292.242188 338.878906 C 293.347656 338.441406 294.105469 337.171875 294.6875 336.195312 C 295.925781 334.125 296.734375 331.640625 298.503906 329.933594 C 298.914062 329.535156 299.382812 329.195312 299.902344 328.957031 C 300.585938 328.644531 301.292969 328.566406 302.027344 328.492188 C 302.683594 328.421875 303.34375 328.304688 303.851562 327.851562 C 304.335938 327.425781 304.609375 326.808594 304.824219 326.214844 C 305.480469 324.398438 306.039062 322.539062 306.640625 320.703125 C 307.253906 318.835938 307.867188 316.96875 308.480469 315.101562 C 309.714844 311.34375 310.949219 307.582031 312.183594 303.824219 C 313.382812 300.175781 314.652344 296.546875 315.699219 292.851562 C 316.710938 289.285156 317.464844 285.605469 317.40625 281.882812 C 317.347656 278.230469 316.476562 274.652344 315.308594 271.207031 " fill-opacity="1" fill-rule="nonzero"/><path fill="#c22828" d="M 264.980469 367.71875 C 264.980469 367.761719 264.980469 367.800781 264.980469 367.839844 C 264.980469 367.800781 264.980469 367.761719 264.980469 367.71875 Z M 255.339844 337.988281 C 255.207031 338.472656 255.058594 338.957031 254.910156 339.4375 C 255.054688 338.949219 255.203125 338.464844 255.34375 337.972656 C 255.34375 337.980469 255.34375 337.984375 255.339844 337.988281 Z M 285.726562 297.230469 C 285.683594 291.644531 285.792969 286.023438 285.21875 280.460938 C 284.683594 275.277344 283.335938 270.308594 281.199219 265.558594 C 279.070312 260.828125 276.332031 256.398438 273.484375 252.070312 C 270.410156 247.398438 267.257812 242.777344 264.089844 238.164062 C 262.476562 235.8125 260.855469 233.464844 259.222656 231.121094 C 257.949219 229.289062 256.722656 227.25 254.941406 225.851562 C 254.203125 225.273438 253.386719 224.851562 252.476562 224.628906 C 252.4375 224.621094 252.394531 224.664062 252.421875 224.699219 C 257.257812 231.582031 258.792969 240.007812 259.132812 248.261719 C 259.308594 252.453125 259.191406 256.652344 259.042969 260.84375 C 258.863281 265.859375 258.675781 270.875 258.496094 275.890625 C 258.128906 285.9375 257.765625 295.988281 257.398438 306.035156 C 257.21875 311.058594 257.035156 316.082031 256.851562 321.105469 C 256.671875 326.085938 256.746094 331.1875 255.746094 336.089844 C 255.273438 338.394531 254.324219 340.585938 253.964844 342.914062 C 253.6875 344.6875 253.921875 346.449219 254.417969 348.160156 C 255.449219 351.722656 257.585938 355.082031 257.78125 358.855469 C 257.828125 359.804688 257.722656 360.746094 257.464844 361.664062 C 257.457031 361.6875 257.472656 361.71875 257.496094 361.722656 C 258.488281 361.875 259.480469 361.773438 260.414062 361.394531 C 260.867188 361.207031 261.304688 360.957031 261.695312 360.652344 C 261.785156 360.582031 261.917969 360.433594 262.058594 360.277344 C 262.144531 360.195312 262.230469 360.109375 262.308594 360.023438 C 262.480469 359.863281 262.648438 359.753906 262.765625 359.808594 C 262.8125 359.832031 262.855469 359.886719 262.902344 359.960938 C 262.917969 359.992188 262.9375 360.023438 262.953125 360.054688 C 263.070312 360.285156 263.179688 360.601562 263.238281 360.71875 C 263.421875 361.101562 263.589844 361.492188 263.746094 361.886719 C 263.996094 362.523438 264.207031 363.175781 264.378906 363.839844 C 264.765625 365.328125 264.945312 366.855469 264.9375 368.394531 C 264.9375 368.410156 264.949219 368.429688 264.960938 368.4375 C 267.078125 369.386719 269.546875 369.136719 271.425781 367.792969 L 269.855469 369.554688 C 269.800781 369.597656 269.746094 369.640625 269.6875 369.679688 C 269.636719 369.714844 269.683594 369.796875 269.734375 369.761719 C 273.277344 367.269531 276.199219 363.949219 278.242188 360.128906 C 279.261719 358.226562 280.0625 356.203125 280.613281 354.113281 C 281.226562 351.800781 281.4375 349.453125 281.570312 347.070312 C 281.730469 344.171875 282.113281 341.425781 283.003906 338.65625 C 283.832031 336.078125 284.75 333.550781 285.21875 330.875 C 286.160156 325.515625 285.890625 320 285.851562 314.585938 C 285.808594 308.800781 285.765625 303.015625 285.726562 297.230469 " fill-opacity="1" fill-rule="nonzero"/><path fill="#c22828" d="M 256.726562 303.816406 C 256.648438 299.363281 256.238281 293.898438 252.625 290.761719 C 252.207031 290.398438 251.757812 290.082031 251.277344 289.808594 C 251.222656 289.777344 251.175781 289.859375 251.226562 289.890625 C 251.300781 289.933594 251.375 289.976562 251.445312 290.019531 L 251.894531 290.414062 C 250.070312 289.226562 247.839844 288.6875 245.65625 288.820312 C 244.238281 288.910156 242.835938 289.277344 241.578125 289.941406 C 240.078125 290.734375 239.066406 291.96875 237.898438 293.152344 C 236.570312 294.496094 234.984375 295.191406 233.128906 295.453125 C 231.414062 295.695312 229.679688 295.640625 227.957031 295.796875 C 226.410156 295.933594 224.859375 296.257812 223.527344 297.089844 C 222.390625 297.800781 221.488281 298.816406 220.847656 299.988281 C 219.453125 302.546875 219.203125 305.625 219.230469 308.488281 C 219.25 310.238281 219.410156 311.980469 219.546875 313.722656 C 219.722656 315.964844 219.894531 318.207031 220.070312 320.449219 C 220.414062 324.90625 220.761719 329.363281 221.105469 333.820312 C 221.433594 338.039062 221.542969 342.367188 222.554688 346.492188 C 223.507812 350.398438 225.542969 353.863281 227.671875 357.226562 C 230.050781 360.980469 232.449219 364.722656 234.835938 368.472656 C 235.414062 369.382812 235.996094 370.292969 236.578125 371.203125 C 236.59375 371.234375 236.636719 371.230469 236.65625 371.203125 C 240.011719 366.257812 242.976562 361.054688 245.527344 355.652344 C 248.054688 350.292969 250.175781 344.734375 251.867188 339.050781 C 253.570312 333.328125 254.84375 327.472656 255.660156 321.558594 C 256.46875 315.683594 256.832031 309.746094 256.726562 303.816406 " fill-opacity="1" fill-rule="nonzero"/><path fill="#c22828" d="M 217.90625 308.019531 C 217.757812 307.351562 217.515625 306.667969 217.027344 306.171875 C 216.53125 305.664062 215.847656 305.449219 215.167969 305.332031 C 213.472656 305.042969 211.71875 304.980469 210.007812 304.859375 C 208.214844 304.726562 206.417969 304.601562 204.632812 304.375 C 202.855469 304.148438 201.085938 303.828125 199.367188 303.308594 C 198.480469 303.042969 197.613281 302.722656 196.769531 302.339844 C 196.730469 302.324219 196.695312 302.304688 196.65625 302.289062 C 196.378906 301.753906 195.898438 301.300781 195.359375 301.011719 C 194.582031 300.589844 193.742188 300.554688 192.921875 300.710938 C 192.144531 300.546875 191.351562 300.566406 190.683594 301.042969 C 190.324219 301.296875 190.007812 301.617188 189.734375 301.980469 C 189.46875 302.113281 189.199219 302.242188 188.925781 302.367188 C 188.121094 302.726562 187.292969 303.03125 186.449219 303.292969 C 184.753906 303.808594 183.007812 304.132812 181.25 304.359375 C 177.828125 304.796875 174.363281 304.828125 170.945312 305.277344 C 170.257812 305.367188 169.546875 305.515625 168.984375 305.941406 C 168.46875 306.332031 168.160156 306.917969 167.972656 307.527344 C 167.726562 308.324219 167.636719 309.175781 167.515625 310.003906 C 167.386719 310.890625 167.265625 311.785156 167.160156 312.675781 C 166.226562 320.355469 166.144531 328.089844 166.269531 335.820312 C 166.328125 339.476562 166.324219 343.152344 166.621094 346.796875 C 166.894531 350.160156 167.492188 353.542969 168.933594 356.617188 C 171.425781 361.945312 176.414062 365.867188 178.207031 371.558594 C 178.417969 372.230469 178.574219 372.917969 178.675781 373.617188 C 178.679688 373.65625 178.730469 373.65625 178.753906 373.640625 C 179.644531 372.941406 180.753906 373.472656 181.648438 373.875 C 182.480469 374.25 183.398438 374.707031 184.34375 374.570312 C 185.417969 374.414062 186.273438 373.488281 186.929688 372.691406 C 187.566406 371.914062 188.078125 371.042969 188.472656 370.121094 C 189.292969 368.199219 189.621094 366.101562 189.824219 364.035156 C 190.042969 361.796875 190.117188 359.546875 190.382812 357.3125 C 190.652344 355.054688 191.125 352.789062 192.1875 350.757812 C 192.402344 350.347656 192.640625 349.945312 192.875 349.546875 C 193.414062 350.464844 193.921875 351.390625 194.289062 352.394531 C 194.664062 353.421875 194.925781 354.488281 195.117188 355.566406 C 195.894531 359.9375 195.476562 364.519531 196.796875 368.792969 C 197.394531 370.722656 198.433594 372.648438 200.042969 373.921875 C 200.867188 374.574219 201.765625 374.726562 202.765625 374.417969 C 203.710938 374.125 204.5625 373.550781 205.535156 373.34375 C 206.0625 373.234375 206.566406 373.300781 207 373.640625 C 207.023438 373.65625 207.070312 373.65625 207.078125 373.617188 C 207.96875 367.476562 213.121094 363.246094 216.054688 358.089844 C 219.609375 351.84375 219.324219 344.316406 219.453125 337.363281 C 219.605469 329.386719 219.59375 321.402344 218.683594 313.46875 C 218.476562 311.660156 218.308594 309.796875 217.90625 308.019531 " fill-opacity="1" fill-rule="nonzero"/><path fill="#c22828" d="M 97.609375 265.015625 C 96.957031 262.277344 95.242188 259.742188 92.375 259.058594 C 91.199219 258.777344 89.914062 258.824219 88.8125 259.351562 C 87.421875 260.015625 86.867188 261.378906 85.890625 262.472656 C 84.136719 264.433594 81.332031 263.890625 78.910156 263.855469 C 79.199219 263.375 79.460938 262.882812 79.652344 262.363281 C 80.65625 259.683594 78.503906 257.335938 77.015625 255.347656 C 75.257812 252.996094 73.640625 250.546875 72.171875 248.011719 C 70.6875 245.453125 69.355469 242.8125 68.183594 240.101562 C 67.597656 238.738281 67.0625 237.359375 66.542969 235.972656 C 66.125 234.863281 65.648438 233.695312 64.714844 232.914062 C 62.910156 231.402344 60.21875 232.089844 58.613281 233.550781 C 56.648438 235.339844 55.714844 238.109375 54.859375 240.546875 C 54.816406 240.671875 54.773438 240.800781 54.730469 240.929688 C 54.023438 240.074219 53.179688 239.324219 52.335938 238.617188 C 48.644531 235.503906 44.925781 232.429688 41.222656 229.335938 C 40.765625 228.953125 40.304688 228.570312 39.847656 228.1875 C 39.824219 228.167969 39.789062 228.167969 39.773438 228.195312 C 37.917969 231.523438 36.640625 235.132812 35.671875 238.808594 C 34.679688 242.5625 33.996094 246.386719 33.304688 250.203125 C 32.597656 254.117188 31.984375 258.09375 32.492188 262.066406 C 32.914062 265.328125 33.992188 268.5 35.613281 271.359375 C 37.238281 274.222656 39.414062 276.785156 42.015625 278.8125 C 42.324219 279.046875 42.632812 279.277344 42.949219 279.5 C 42.957031 279.507812 42.96875 279.507812 42.976562 279.507812 C 42.976562 279.625 42.980469 279.816406 43.042969 279.855469 C 43.0625 279.863281 43.089844 279.863281 43.101562 279.847656 C 43.167969 279.773438 43.167969 279.585938 43.199219 279.496094 C 43.304688 279.1875 43.511719 278.914062 43.820312 278.789062 C 44.234375 278.625 44.617188 278.503906 44.984375 278.242188 C 45.355469 277.976562 45.683594 277.65625 45.988281 277.316406 C 47.335938 275.820312 48.503906 274.125 49.578125 272.429688 C 50.042969 271.691406 50.488281 270.9375 50.910156 270.175781 C 50.898438 272.105469 50.90625 274.039062 50.914062 275.972656 C 50.929688 278.910156 50.914062 281.875 51.476562 284.769531 C 51.75 286.160156 52.160156 287.519531 52.761719 288.804688 C 53.351562 290.074219 54.101562 291.261719 54.871094 292.429688 C 55.628906 293.585938 56.414062 294.722656 57.109375 295.921875 C 57.753906 297.039062 58.261719 298.203125 58.707031 299.410156 C 59.382812 301.234375 60.015625 303.34375 61.484375 304.707031 C 62.105469 305.285156 62.867188 305.632812 63.710938 305.714844 L 63.304688 306.195312 C 63.300781 306.191406 63.300781 306.191406 63.296875 306.191406 C 63.25 306.152344 63.199219 306.234375 63.25 306.269531 C 64.050781 306.847656 64.886719 306.25 65.402344 305.585938 C 66.171875 304.597656 66.402344 303.332031 66.71875 302.148438 C 67.449219 299.414062 68.078125 296.65625 68.6875 293.890625 C 68.8125 293.332031 68.933594 292.769531 69.054688 292.210938 C 69.695312 295.40625 70.695312 298.523438 71.710938 301.617188 C 74.183594 309.15625 76.660156 316.691406 79.136719 324.230469 C 79.738281 326.066406 80.296875 327.925781 80.953125 329.742188 C 81.167969 330.339844 81.441406 330.953125 81.925781 331.382812 C 82.433594 331.832031 83.09375 331.953125 83.746094 332.019531 C 84.484375 332.097656 85.191406 332.171875 85.871094 332.484375 C 86.390625 332.722656 86.859375 333.0625 87.273438 333.460938 C 88.148438 334.308594 88.773438 335.382812 89.34375 336.449219 C 89.941406 337.570312 90.480469 338.722656 91.140625 339.8125 C 91.722656 340.777344 92.511719 342.09375 93.648438 342.449219 C 94.6875 342.777344 95.421875 342 95.492188 341.019531 C 95.585938 339.675781 94.902344 338.488281 94.316406 337.335938 C 93.886719 336.484375 93.453125 335.628906 93.019531 334.777344 C 94.457031 333.722656 94.75 331.121094 94.734375 329.535156 C 94.703125 325.886719 93.734375 322.339844 93.125 318.761719 C 92.804688 316.890625 92.589844 314.996094 92.644531 313.09375 C 92.695312 311.207031 92.96875 309.339844 93.296875 307.484375 C 93.613281 305.667969 93.984375 303.859375 94.246094 302.03125 C 94.5 300.234375 94.609375 298.445312 94.574219 296.628906 C 94.539062 294.773438 94.441406 292.878906 94.921875 291.066406 C 95.378906 289.332031 96.492188 287.878906 97.039062 286.179688 C 97.574219 284.515625 97.609375 282.746094 97.546875 281.015625 C 97.484375 279.167969 97.34375 277.335938 97.457031 275.484375 C 97.671875 272.003906 98.425781 268.476562 97.609375 265.015625 " fill-opacity="1" fill-rule="nonzero"/><path fill="#c22828" d="M 78.617188 57.757812 C 77.558594 55.441406 76.476562 53.136719 75.375 50.839844 C 76.757812 53.699219 78.101562 56.574219 79.398438 59.472656 C 79.136719 58.902344 78.878906 58.328125 78.617188 57.757812 Z M 91.902344 142.5625 C 90.421875 125.859375 92.09375 108.996094 89.820312 92.347656 C 89.421875 89.441406 88.871094 86.574219 88.1875 83.738281 C 87.726562 81.78125 87.195312 79.84375 86.605469 77.925781 C 86.601562 77.910156 86.597656 77.894531 86.59375 77.878906 C 86.554688 77.753906 86.515625 77.625 86.476562 77.5 C 83.089844 66.496094 78.015625 55.984375 72.925781 45.695312 C 70.820312 41.441406 68.648438 37.226562 66.410156 33.042969 C 65.296875 30.964844 64.1875 28.882812 63.015625 26.835938 C 62.726562 26.335938 62.433594 25.835938 62.121094 25.347656 C 61.878906 24.96875 61.882812 24.875 61.492188 24.761719 C 60.265625 24.40625 59.011719 24.160156 57.757812 23.941406 C 57.738281 23.933594 57.714844 23.941406 57.703125 23.960938 C 52.367188 33.175781 48.558594 43.253906 46.421875 53.6875 C 44.648438 62.351562 44.023438 71.257812 44.609375 80.089844 C 43.359375 78.292969 41.691406 76.800781 39.761719 75.761719 C 38.003906 74.816406 35.308594 73.667969 33.628906 75.339844 C 32.835938 76.128906 32.328125 77.246094 31.851562 78.242188 C 31.332031 79.328125 30.894531 80.449219 30.53125 81.597656 C 29.8125 83.882812 29.394531 86.257812 29.199219 88.644531 C 28.789062 93.644531 29.34375 98.65625 30.203125 103.578125 C 31.171875 109.125 32.488281 114.617188 33.132812 120.21875 C 33.289062 121.585938 33.40625 122.957031 33.46875 124.328125 C 33.519531 125.527344 33.507812 126.726562 33.523438 127.925781 C 33.546875 129.898438 33.621094 131.976562 34.398438 133.824219 C 35.132812 135.582031 36.613281 136.925781 38.527344 137.246094 C 40.628906 137.597656 42.800781 136.816406 44.554688 135.695312 C 46.496094 134.449219 48.128906 132.660156 49.363281 130.726562 C 49.996094 129.730469 50.503906 128.675781 50.960938 127.589844 C 51.449219 126.421875 51.921875 125.230469 52.664062 124.195312 C 53.375 123.214844 54.386719 122.464844 54.941406 121.371094 C 54.941406 121.367188 54.945312 121.367188 54.945312 121.363281 C 56.71875 125.867188 58.738281 130.28125 61.148438 134.480469 C 63.902344 139.277344 67.152344 143.777344 70.640625 148.0625 C 78.023438 157.128906 86.289062 165.550781 94.710938 173.644531 C 95.777344 174.667969 96.847656 175.683594 97.921875 176.695312 C 97.957031 176.726562 98.011719 176.695312 98 176.648438 C 95.472656 165.382812 92.949219 154.078125 91.902344 142.5625 " fill-opacity="1" fill-rule="nonzero"/><path fill="#c22828" d="M 124.3125 118.460938 C 126.597656 117.644531 128.242188 115.960938 129.699219 114.078125 C 131.269531 112.042969 132.8125 109.957031 134.195312 107.789062 C 135.554688 105.660156 136.746094 103.402344 137.484375 100.976562 C 138.296875 98.316406 138.421875 95.558594 138.203125 92.800781 C 138.09375 91.378906 137.90625 89.964844 137.71875 88.554688 C 136.941406 82.703125 136.164062 76.851562 135.386719 71.003906 C 134.640625 65.386719 133.996094 59.742188 133.015625 54.15625 C 132.097656 48.933594 130.746094 43.808594 128.570312 38.957031 C 126.546875 34.449219 123.929688 30.21875 120.929688 26.300781 C 119.292969 24.164062 117.542969 22.113281 115.703125 20.152344 C 114.746094 19.128906 113.761719 18.132812 112.757812 17.15625 C 111.769531 16.191406 110.785156 15.175781 109.585938 14.476562 C 109.5625 14.460938 109.535156 14.472656 109.519531 14.492188 C 108.632812 15.648438 107.671875 16.757812 106.597656 17.746094 C 106.136719 18.167969 105.660156 18.574219 105.171875 18.96875 C 104.953125 19.144531 104.597656 19.332031 104.429688 19.558594 C 104.195312 19.878906 104.046875 20.324219 103.871094 20.679688 C 102.542969 23.347656 101.210938 26.015625 99.882812 28.683594 C 98.582031 31.296875 97.257812 33.902344 95.988281 36.535156 C 94.796875 39.003906 93.6875 41.527344 92.933594 44.171875 C 91.347656 49.714844 91.429688 55.613281 91.214844 61.324219 C 90.988281 67.300781 90.769531 73.273438 90.550781 79.246094 C 90.441406 82.234375 90.332031 85.21875 90.222656 88.207031 C 90.128906 90.847656 89.996094 93.53125 90.488281 96.148438 C 90.96875 98.695312 92.167969 100.875 93.851562 102.828125 C 95.476562 104.714844 97.289062 106.46875 99.082031 108.199219 C 102.535156 111.515625 106.273438 114.671875 110.605469 116.777344 C 114.695312 118.769531 119.878906 120.042969 124.3125 118.460938 " fill-opacity="1" fill-rule="nonzero"/><path fill="#c22828" d="M 139.882812 92.472656 C 141.597656 95.945312 144.386719 98.542969 147.933594 100.085938 C 149.820312 100.90625 151.8125 101.445312 153.816406 101.894531 C 156.109375 102.40625 158.421875 102.839844 160.734375 103.257812 C 169.253906 104.789062 178.972656 105.496094 186.320312 100 C 189.703125 97.46875 191.710938 93.992188 192.863281 90.160156 C 193.484375 92.238281 194.363281 94.234375 195.609375 96.03125 C 200.566406 103.199219 209.808594 104.910156 217.964844 104.238281 C 220.433594 104.03125 222.882812 103.648438 225.316406 103.203125 C 227.585938 102.789062 229.855469 102.367188 232.101562 101.855469 C 236.039062 100.96875 240.003906 99.621094 242.90625 96.6875 C 248.246094 91.28125 248.65625 82.863281 248.773438 75.71875 C 248.917969 66.859375 248.75 57.976562 247.765625 49.160156 C 246.804688 40.550781 245.046875 31.988281 241.960938 23.875 C 240.445312 19.898438 238.613281 16.039062 236.433594 12.382812 C 234.355469 8.894531 231.9375 5.480469 228.707031 2.960938 C 227.484375 2.007812 226.152344 1.210938 224.722656 0.613281 C 224.863281 0.59375 225 0.578125 225.140625 0.570312 C 225.199219 0.5625 225.199219 0.46875 225.140625 0.472656 C 225.074219 0.480469 225.011719 0.484375 224.949219 0.492188 L 224.117188 0.371094 C 224.046875 0.347656 223.976562 0.316406 223.902344 0.292969 C 223.847656 0.273438 223.820312 0.363281 223.878906 0.386719 C 224.042969 0.445312 224.207031 0.507812 224.371094 0.570312 C 220.582031 1.222656 217.683594 4.339844 215.1875 7.054688 C 212.25 10.253906 209.585938 13.703125 207.226562 17.351562 C 204.804688 21.097656 202.707031 25.050781 200.96875 29.15625 C 199.101562 33.558594 197.671875 38.132812 196.46875 42.757812 C 194.9375 48.625 193.734375 54.582031 192.890625 60.589844 C 192.367188 56.960938 191.710938 53.355469 190.953125 49.789062 C 188.972656 40.492188 186.289062 31.292969 181.789062 22.882812 C 179.738281 19.050781 177.367188 15.394531 174.707031 11.960938 C 173.339844 10.195312 171.898438 8.496094 170.382812 6.859375 C 168.960938 5.320312 167.496094 3.785156 165.792969 2.554688 C 164.464844 1.59375 162.988281 0.851562 161.378906 0.570312 C 161.542969 0.507812 161.707031 0.445312 161.875 0.386719 C 161.929688 0.363281 161.90625 0.273438 161.847656 0.292969 C 161.777344 0.316406 161.707031 0.347656 161.636719 0.371094 L 160.804688 0.492188 C 160.742188 0.484375 160.675781 0.480469 160.613281 0.472656 C 160.550781 0.46875 160.550781 0.5625 160.613281 0.570312 C 160.753906 0.578125 160.890625 0.59375 161.03125 0.613281 C 157.621094 2.046875 154.851562 4.621094 152.589844 7.519531 C 150.03125 10.800781 147.964844 14.5 146.183594 18.253906 C 142.472656 26.066406 140.179688 34.484375 138.816406 43.007812 C 137.421875 51.707031 136.96875 60.535156 136.933594 69.339844 C 136.917969 73.464844 136.886719 77.625 137.246094 81.738281 C 137.566406 85.410156 138.234375 89.144531 139.882812 92.472656 " fill-opacity="1" fill-rule="nonzero"/><g clip-path="url(#id1)"><path fill="#c22828" d="M 31.949219 139.527344 L 20.089844 104.644531 C 20.089844 104.640625 20.09375 104.640625 20.097656 104.636719 C 20.144531 104.601562 20.097656 104.523438 20.046875 104.558594 C 19.011719 105.289062 17.671875 104.808594 16.5625 104.523438 C 15.996094 104.378906 15.421875 104.246094 14.835938 104.242188 C 14.277344 104.238281 13.722656 104.34375 13.199219 104.542969 C 11.023438 105.371094 9.628906 107.449219 8.535156 109.394531 C 7.269531 111.648438 6.332031 114.117188 5.972656 116.683594 C 5.628906 119.152344 5.863281 121.660156 6.777344 123.984375 C 7.277344 125.261719 7.9375 126.472656 8.632812 127.65625 C 9.386719 128.941406 10.160156 130.210938 10.925781 131.488281 C 12.492188 134.101562 14.058594 136.710938 15.628906 139.320312 C 16.25 140.359375 16.824219 141.636719 17.921875 142.257812 C 18.917969 142.820312 20.113281 142.871094 21.203125 143.125 C 21.761719 143.25 22.316406 143.425781 22.792969 143.753906 C 23.246094 144.0625 23.589844 144.496094 23.84375 144.976562 C 24.324219 145.890625 24.480469 146.925781 24.902344 147.859375 C 25.695312 149.625 28.34375 150.949219 29.902344 149.3125 C 30.667969 148.507812 30.75 147.296875 30.917969 146.261719 C 31.164062 144.761719 31.40625 143.265625 31.652344 141.765625 C 31.773438 141.039062 31.890625 140.3125 32.007812 139.585938 C 32.015625 139.546875 31.976562 139.523438 31.949219 139.527344 " fill-opacity="1" fill-rule="nonzero"/></g><path fill="#c22828" d="M 309.285156 154.75 C 308.644531 155.464844 308 156.175781 307.347656 156.882812 C 308 156.175781 308.644531 155.464844 309.285156 154.75 Z M 287.820312 176.691406 C 296.597656 168.445312 305.128906 159.832031 312.9375 150.652344 C 316.617188 146.332031 320.085938 141.816406 323.085938 136.992188 C 326.132812 132.085938 328.621094 126.859375 330.742188 121.492188 C 330.757812 121.449219 330.773438 121.410156 330.792969 121.363281 C 330.808594 121.394531 330.824219 121.429688 330.839844 121.460938 C 331.417969 122.539062 332.433594 123.289062 333.128906 124.28125 C 333.859375 125.324219 334.324219 126.519531 334.816406 127.683594 C 335.742188 129.890625 336.988281 131.902344 338.671875 133.613281 C 340.222656 135.191406 342.09375 136.507812 344.261719 137.070312 C 346.222656 137.578125 348.363281 137.347656 349.898438 135.925781 C 351.285156 134.648438 351.820312 132.753906 352.042969 130.9375 C 352.3125 128.707031 352.164062 126.453125 352.269531 124.210938 C 352.53125 118.601562 353.710938 113.09375 354.78125 107.59375 C 355.765625 102.53125 356.652344 97.425781 356.667969 92.253906 C 356.683594 87.425781 355.945312 82.523438 353.835938 78.144531 C 353.355469 77.15625 352.847656 76.035156 352.035156 75.273438 C 351.207031 74.496094 350.09375 74.382812 349.019531 74.589844 C 347.925781 74.804688 346.859375 75.273438 345.882812 75.808594 C 344.902344 76.347656 343.984375 77.003906 343.160156 77.757812 C 342.394531 78.457031 341.714844 79.242188 341.125 80.089844 C 341.683594 71.65625 341.136719 63.15625 339.542969 54.859375 C 337.5 44.238281 333.738281 33.945312 328.371094 24.550781 C 328.042969 23.976562 327.707031 23.40625 327.367188 22.835938 C 327.160156 22.492188 327.085938 22.320312 326.925781 22.195312 C 326.921875 22.191406 326.917969 22.1875 326.914062 22.183594 C 326.910156 22.179688 326.902344 22.175781 326.894531 22.175781 C 326.792969 22.105469 326.65625 22.050781 326.4375 21.988281 C 326.417969 21.980469 326.40625 21.988281 326.394531 21.996094 C 324.695312 23.496094 323.503906 25.425781 322.410156 27.382812 C 321.109375 29.710938 319.847656 32.058594 318.597656 34.410156 C 316.074219 39.164062 313.636719 43.964844 311.289062 48.808594 C 306.769531 58.125 302.300781 67.589844 299.214844 77.496094 C 298.199219 80.757812 297.402344 84.0625 296.773438 87.390625 C 296.5 88.839844 296.257812 90.296875 296.050781 91.753906 C 296.035156 91.871094 296.019531 91.988281 296 92.105469 C 295.984375 92.222656 295.96875 92.339844 295.953125 92.460938 C 295.226562 97.726562 294.871094 103.054688 294.726562 108.398438 C 294.425781 119.09375 294.804688 129.8125 294.007812 140.492188 C 293.199219 151.363281 290.992188 162.054688 288.628906 172.675781 C 288.335938 174 288.035156 175.324219 287.738281 176.648438 C 287.730469 176.691406 287.785156 176.726562 287.820312 176.691406 " fill-opacity="1" fill-rule="nonzero"/><path fill="#c22828" d="M 247.457031 94.320312 C 247.386719 96.367188 247.554688 98.40625 248.089844 100.382812 C 248.570312 102.160156 249.304688 103.855469 250.179688 105.472656 C 251.125 107.214844 252.226562 108.871094 253.382812 110.480469 C 254.453125 111.980469 255.539062 113.496094 256.71875 114.917969 C 257.886719 116.324219 259.234375 117.558594 260.9375 118.269531 C 262.625 118.976562 264.484375 119.195312 266.300781 119.125 C 273.53125 118.851562 279.777344 114.507812 284.945312 109.800781 C 286.316406 108.554688 287.640625 107.257812 288.945312 105.9375 C 290.246094 104.621094 291.574219 103.308594 292.699219 101.832031 C 293.875 100.289062 294.714844 98.578125 295.136719 96.683594 C 295.566406 94.78125 295.628906 92.816406 295.597656 90.875 C 295.527344 86.453125 295.292969 82.027344 295.128906 77.609375 C 294.964844 73.0625 294.796875 68.519531 294.625 63.972656 C 294.542969 61.773438 294.457031 59.570312 294.375 57.367188 C 294.214844 53.132812 294.050781 48.855469 292.960938 44.738281 C 291.898438 40.699219 289.980469 36.957031 288.125 33.238281 C 286.109375 29.1875 284.09375 25.140625 282.074219 21.089844 C 281.578125 20.09375 281.082031 19.097656 280.585938 18.097656 C 280.335938 17.597656 280.089844 17.101562 279.839844 16.601562 C 279.609375 16.140625 279.417969 15.632812 279.082031 15.25 C 278.738281 14.855469 278.375 14.496094 278.050781 14.078125 C 277.839844 13.800781 277.65625 13.910156 277.316406 13.996094 C 276.523438 14.199219 275.816406 14.640625 275.175781 15.144531 C 273.691406 16.3125 272.363281 17.734375 271.054688 19.089844 C 269.726562 20.460938 268.441406 21.875 267.210938 23.332031 C 264.785156 26.195312 262.558594 29.230469 260.613281 32.4375 C 258.6875 35.605469 257.039062 38.945312 255.757812 42.425781 C 254.296875 46.382812 253.355469 50.503906 252.644531 54.652344 C 251.914062 58.921875 251.394531 63.234375 250.824219 67.527344 C 250.222656 72.039062 249.625 76.546875 249.027344 81.058594 C 248.730469 83.28125 248.433594 85.503906 248.140625 87.722656 C 247.851562 89.914062 247.53125 92.109375 247.457031 94.320312 " fill-opacity="1" fill-rule="nonzero"/><g clip-path="url(#id2)"><path fill="#c22828" d="M 369.269531 117.628906 C 369.003906 115.296875 368.300781 113.027344 367.289062 110.910156 C 366.765625 109.816406 366.15625 108.757812 365.480469 107.753906 C 364.851562 106.824219 364.167969 105.917969 363.277344 105.222656 C 362.496094 104.609375 361.523438 104.15625 360.507812 104.320312 C 359.492188 104.484375 358.703125 105.222656 357.761719 105.582031 C 357.289062 105.757812 356.808594 105.796875 356.363281 105.523438 C 356.3125 105.492188 356.265625 105.574219 356.316406 105.605469 C 356.324219 105.609375 356.328125 105.613281 356.335938 105.613281 L 351.671875 141.976562 C 351.644531 141.976562 351.613281 142 351.621094 142.035156 C 351.984375 143.398438 352.347656 144.757812 352.710938 146.117188 C 353.042969 147.363281 353.324219 148.636719 353.726562 149.863281 C 353.996094 150.699219 354.480469 151.601562 355.429688 151.746094 C 356.296875 151.878906 357.050781 151.257812 357.523438 150.597656 C 357.820312 150.179688 358.046875 149.703125 358.175781 149.207031 C 358.300781 148.726562 358.339844 148.222656 358.394531 147.730469 C 358.507812 146.695312 358.605469 145.566406 359.253906 144.707031 C 359.90625 143.835938 360.996094 143.539062 361.917969 143.050781 C 362.339844 142.824219 362.742188 142.550781 363.046875 142.175781 C 363.378906 141.761719 363.585938 141.269531 363.757812 140.773438 C 364.195312 139.476562 364.570312 138.15625 364.972656 136.847656 C 365.378906 135.535156 365.785156 134.222656 366.1875 132.90625 C 366.996094 130.285156 367.875 127.675781 368.585938 125.023438 C 369.238281 122.59375 369.554688 120.136719 369.269531 117.628906 " fill-opacity="1" fill-rule="nonzero"/></g></svg>